<?xml version="1.0" ?><svg enable-background="new 0 0 32 32" id="Layer_1" version="1.1" viewBox="0 0 32 32" xml:space="preserve" xmlns="http://www.w3.org/2000/svg" xmlns:xlink="http://www.w3.org/1999/xlink"><g id="OUTLINE_copy_2"><g><path d="M16,0C7.163,0,0,7.164,0,16s7.163,16,16,16c8.836,0,16-7.164,16-16S24.837,0,16,0z M16.173,24.596    c-4.749,0-8.596-3.847-8.596-8.596s3.847-8.596,8.596-8.596c2.321,0,4.261,0.855,5.748,2.24l-2.423,2.423v-0.005    c-0.902-0.86-2.047-1.3-3.325-1.3c-2.836,0-5.141,2.396-5.141,5.232s2.305,5.238,5.141,5.238c2.573,0,4.325-1.472,4.685-3.492    h-4.685v-3.353h8.085c0.107,0.574,0.166,1.177,0.166,1.805C24.424,21.104,21.136,24.596,16.173,24.596z"/></g></g></svg>