<?xml version="1.0" encoding="UTF-8" standalone="no"?>
<svg xmlns="http://www.w3.org/2000/svg" xml:space="preserve" viewBox="0 0 32 32" version="1.1" xmlns:xlink="http://www.w3.org/1999/xlink" enable-background="new 0 0 32 32"><path d="m16 0c-8.84 0-16 7.16-16 16s7.16 16 16 16c8.84 0 16-7.16 16-16s-7.2-16-16-16zm0.2 24.6c-4.75 0-8.6-3.85-8.6-8.6s3.85-8.6 8.6-8.6c2.32 0 4.26 0.855 5.75 2.24l-2.42 2.42v-0.005c-0.902-0.86-2.05-1.3-3.32-1.3-2.84 0-5.14 2.4-5.14 5.23s2.3 5.24 5.14 5.24c2.57 0 4.32-1.47 4.68-3.49h-4.68v-3.35h8.08c0.107 0.574 0.166 1.18 0.166 1.8-0.2 4.9-3.5 8.4-8.4 8.4z"/></svg>
